<svg width="1024" height="1024" viewBox="0 0 512 512" fill="none" xmlns="http://www.w3.org/2000/svg">
  <defs>
    <linearGradient id="background" x1="68" y1="48" x2="444" y2="464" gradientUnits="userSpaceOnUse">
      <stop stop-color="#FF765E" />
      <stop offset="0.48" stop-color="#F45134" />
      <stop offset="1" stop-color="#C92E1D" />
    </linearGradient>
    <linearGradient id="backgroundSheen" x1="102" y1="62" x2="350" y2="390" gradientUnits="userSpaceOnUse">
      <stop stop-color="#FFFFFF" stop-opacity="0.22" />
      <stop offset="0.55" stop-color="#FFFFFF" stop-opacity="0.04" />
      <stop offset="1" stop-color="#FFFFFF" stop-opacity="0" />
    </linearGradient>
    <linearGradient id="crownMetal" x1="326" y1="105" x2="408" y2="188" gradientUnits="userSpaceOnUse">
      <stop stop-color="#F1F4F7" />
      <stop offset="0.2" stop-color="#8C939D" />
      <stop offset="0.48" stop-color="#292D33" />
      <stop offset="0.7" stop-color="#606771" />
      <stop offset="1" stop-color="#14171B" />
    </linearGradient>
    <linearGradient id="crownCenter" x1="360" y1="103" x2="374" y2="180" gradientUnits="userSpaceOnUse">
      <stop stop-color="#DCE1E7" />
      <stop offset="0.42" stop-color="#5C626B" />
      <stop offset="1" stop-color="#1D2025" />
    </linearGradient>
    <linearGradient id="crownBand" x1="335" y1="175" x2="402" y2="204" gradientUnits="userSpaceOnUse">
      <stop stop-color="#89919B" />
      <stop offset="0.5" stop-color="#383C43" />
      <stop offset="1" stop-color="#121418" />
    </linearGradient>
    <linearGradient id="crownEdge" x1="339" y1="198" x2="400" y2="214" gradientUnits="userSpaceOnUse">
      <stop stop-color="#282C31" />
      <stop offset="1" stop-color="#060708" />
    </linearGradient>
    <filter id="markShadow" x="66" y="82" width="380" height="386" filterUnits="userSpaceOnUse" color-interpolation-filters="sRGB">
      <feDropShadow dx="0" dy="13" stdDeviation="11" flood-color="#6A130B" flood-opacity="0.27" />
    </filter>
    <filter id="crownShadow" x="294" y="76" width="145" height="157" filterUnits="userSpaceOnUse" color-interpolation-filters="sRGB">
      <feDropShadow dx="0" dy="10" stdDeviation="9" flood-color="#5B2108" flood-opacity="0.34" />
    </filter>
  </defs>

  <rect width="512" height="512" rx="118" fill="url(#background)" />
  <rect x="3" y="3" width="506" height="506" rx="115" stroke="#FFFFFF" stroke-opacity="0.16" stroke-width="6" />
  <path d="M83 72C140 27 231 19 315 45C387 67 440 115 462 181C439 136 393 108 332 102C246 93 154 126 97 192C63 231 43 278 38 327V140C38 112 55 91 83 72Z" fill="url(#backgroundSheen)" />

  <g filter="url(#markShadow)">
    <svg x="86" y="96" width="340" height="340" viewBox="0 0 78 78">
      <path fill="#FFFFFF" transform="translate(10 10) rotate(-45 29 29)" d="M5,58c-2.76142,0 -5,-2.23858 -5,-5v-48c0,-2.76142 2.23858,-5 5,-5h33v12.54404c-2.06553,0.94801 -3.5,3.03446 -3.5,5.45596c0,0.73514 0.13221,1.43941 0.37415,2.09031l-15.28384,15.28384c-0.6509,-0.24194 -1.35517,-0.37415 -2.09031,-0.37415c-3.31371,0 -6,2.68629 -6,6c0,3.31371 2.68629,6 6,6c3.31371,0 6,-2.68629 6,-6c0,-0.73514 -0.13221,-1.43941 -0.37415,-2.09031l14.87415,-14.87415l0,11.50851c-2.06553,0.94801 -3.5,3.03446 -3.5,5.45596c0,3.31371 2.68629,6 6,6c3.31371,0 6,-2.68629 6,-6c0,-2.42149 -1.43447,-4.50795 -3.5,-5.45596l0,-12.08808c2.06553,-0.94801 3.5,-3.03446 3.5,-5.45596c0,-2.42149 -1.43447,-4.50795 -3.5,-5.45596l0,-12.54404h10c2.76142,0 5,2.23858 5,5v48c0,2.76142 -2.23858,5 -5,5z" />
    </svg>
  </g>

  <g filter="url(#crownShadow)" transform="rotate(9 370 157)">
    <path d="M318 125L345 147L364 103C366 98 369 98 371 103L390 146L420 121L406 181H333L318 125Z" fill="url(#crownMetal)" />
    <path d="M345 147L364 103C366 98 369 98 371 103L390 146L381 179H355L345 147Z" fill="url(#crownCenter)" />
    <path d="M318 125L345 147L355 179H333L318 125Z" fill="#E7EBF0" fill-opacity="0.18" />
    <path d="M390 146L420 121L406 181H381L390 146Z" fill="#000000" fill-opacity="0.24" />
    <path d="M333 177H406L403 197C402 202 398 205 392 205H348C343 205 339 202 338 197L333 177Z" fill="url(#crownBand)" />
    <path d="M338 196C358 201 383 201 403 196L401 205C383 212 358 212 340 205L338 196Z" fill="url(#crownEdge)" />
    <path d="M341 183C359 187 381 187 399 183" stroke="#F4F7FA" stroke-width="3" stroke-linecap="round" opacity="0.4" />
    <path d="M326 130L345 153L365 110" stroke="#FFFFFF" stroke-width="2.5" stroke-linecap="round" stroke-linejoin="round" opacity="0.38" />
  </g>
</svg>
